# xmcd
#
# Track frame offsets:
#	150
#	16106
#	36975
#	59308
#	60705
#	75943
#	94028
#	115588
#
# Disc length: 1836 seconds
#
# Revision: 0
# Processed by: cddbd v1.5.2PL0 Copyright (c) Steve Scherf et al.
# Submitted via: dBpowerAMP V4.0
#
DISCID=54072a08
DTITLE=The Turnpike Bandits - Good of the Bad   Bad of the Good
DYEAR=1900
DGENRE=Country
TTITLE0=You Can't Slow me Down
TTITLE1=Good of the Bad   Bad of the Good
TTITLE2=Wranglin Gamblin Outlaw Man
TTITLE3=Truck Go Bang Intro
TTITLE4=Truck Go Bang 
TTITLE5=Keep Keepin On
TTITLE6=Queen of Hearts Queen of Diamonds
TTITLE7=Just a Little Rain
EXTD=
EXTT0=
EXTT1=
EXTT2=
EXTT3=
EXTT4=
EXTT5=
EXTT6=
EXTT7=
PLAYORDER=
